<svg
  width="30"
  height="30"
  xmlns="http://www.w3.org/2000/svg"
  xmlns:xlink="http://www.w3.org/1999/xlink"
  viewBox="0 0 40 30"
>
  <title>Statamic</title>
  <defs>
    <path
      d="M32.143 31c2.85 0 3.896-1.217 3.896-4.195v-5.802c0-2.77 1.36-4.35 2.667-5.102.392-.233.392-.777 0-1.036-1.36-.854-2.667-2.641-2.667-5.024V4.144c0-3.212-.89-4.144-3.74-4.144H6.7C3.85 0 2.961.932 2.961 4.144V9.84c0 2.383-1.307 4.17-2.667 5.024a.603.603 0 000 1.036c1.308.726 2.667 2.305 2.667 5.102v5.802C2.961 29.783 4.007 31 6.857 31h25.286zm-12.708-5.31c-3.06 0-5.282-.906-7.348-2.693-.34-.31-.47-.699-.47-1.087 0-.311.078-.648.313-.907l.628-.802c.313-.389.653-.57 1.046-.57.444 0 .862.181 1.307.466 1.412.906 2.98 1.424 4.864 1.424 1.438 0 2.588-.595 2.588-1.813 0-3.16-10.616-1.424-10.616-8.52 0-3.807 3.138-5.93 7.217-5.93 2.876 0 4.994.828 6.563 1.812.392.26.654.777.654 1.295 0 .31-.079.596-.262.855l-.47.699c-.34.466-.732.7-1.23.7-.34 0-.705-.13-1.097-.312-1.177-.595-2.406-.906-3.897-.906-1.542 0-2.457.829-2.457 1.683 0 3.238 10.616 1.477 10.616 8.365 0 3.86-3.138 6.242-7.95 6.242z"
      id="a"
    ></path>
  </defs>
  <g fill-rule="nonzero" fill="none">
    <g>
      <use fill="#000" xlink:href="#a"></use>
      <use fill="#ff269e" xlink:href="#a"></use>
    </g>
  </g>
</svg>
